<mxfile host="app.diagrams.net" modified="2022-01-12T08:48:14.707Z" agent="5.0 (Windows NT 10.0; Win64; x64) AppleWebKit/537.36 (KHTML, like Gecko) Chrome/97.0.4692.71 Safari/537.36 Edg/97.0.1072.55" etag="1BXr8sGb8dVMxyUz1bJA" version="16.2.4" type="github">
  <diagram id="C5RBs43oDa-KdzZeNtuy" name="Page-1">
    <mxGraphModel dx="1673" dy="2065" grid="1" gridSize="10" guides="1" tooltips="1" connect="1" arrows="1" fold="1" page="1" pageScale="1" pageWidth="1654" pageHeight="1169" math="0" shadow="0">
      <root>
        <mxCell id="WIyWlLk6GJQsqaUBKTNV-0" />
        <mxCell id="WIyWlLk6GJQsqaUBKTNV-1" parent="WIyWlLk6GJQsqaUBKTNV-0" />
        <mxCell id="zkfFHV4jXpPFQw0GAbJ--16" value="" style="endArrow=block;endSize=10;endFill=0;shadow=0;strokeWidth=1;rounded=0;elbow=vertical;exitX=0.385;exitY=0;exitDx=0;exitDy=0;exitPerimeter=0;" parent="WIyWlLk6GJQsqaUBKTNV-1" source="PtQVFHTTYoA2UzFSWJgZ-59" target="PtQVFHTTYoA2UzFSWJgZ-51" edge="1">
          <mxGeometry width="160" relative="1" as="geometry">
            <mxPoint x="769.3394495412845" y="150" as="sourcePoint" />
            <mxPoint x="715.3199999999999" y="40.983999999999924" as="targetPoint" />
          </mxGeometry>
        </mxCell>
        <mxCell id="PtQVFHTTYoA2UzFSWJgZ-0" value="" style="endArrow=open;shadow=0;strokeWidth=1;rounded=0;endFill=1;edgeStyle=orthogonalEdgeStyle;elbow=vertical;entryX=0;entryY=0.5;entryDx=0;entryDy=0;" parent="WIyWlLk6GJQsqaUBKTNV-1" source="PtQVFHTTYoA2UzFSWJgZ-59" target="PtQVFHTTYoA2UzFSWJgZ-11" edge="1">
          <mxGeometry x="0.5" y="41" relative="1" as="geometry">
            <mxPoint x="827" y="160" as="sourcePoint" />
            <mxPoint x="1047" y="-140" as="targetPoint" />
            <mxPoint x="-40" y="32" as="offset" />
          </mxGeometry>
        </mxCell>
        <mxCell id="PtQVFHTTYoA2UzFSWJgZ-1" value="0..n" style="resizable=0;align=left;verticalAlign=bottom;labelBackgroundColor=none;fontSize=12;" parent="PtQVFHTTYoA2UzFSWJgZ-0" connectable="0" vertex="1">
          <mxGeometry x="-1" relative="1" as="geometry">
            <mxPoint y="-10" as="offset" />
          </mxGeometry>
        </mxCell>
        <mxCell id="PtQVFHTTYoA2UzFSWJgZ-2" value="1" style="resizable=0;align=right;verticalAlign=bottom;labelBackgroundColor=none;fontSize=12;" parent="PtQVFHTTYoA2UzFSWJgZ-0" connectable="0" vertex="1">
          <mxGeometry x="1" relative="1" as="geometry">
            <mxPoint x="-7" y="4" as="offset" />
          </mxGeometry>
        </mxCell>
        <mxCell id="PtQVFHTTYoA2UzFSWJgZ-3" value="&amp;nbsp;" style="text;html=1;resizable=0;points=[];;align=center;verticalAlign=middle;labelBackgroundColor=none;rounded=0;shadow=0;strokeWidth=1;fontSize=12;" parent="PtQVFHTTYoA2UzFSWJgZ-0" vertex="1" connectable="0">
          <mxGeometry x="0.5" y="49" relative="1" as="geometry">
            <mxPoint x="-38" y="40" as="offset" />
          </mxGeometry>
        </mxCell>
        <mxCell id="PtQVFHTTYoA2UzFSWJgZ-10" value="ServicePackage" style="swimlane;fontStyle=1;align=center;verticalAlign=top;childLayout=stackLayout;horizontal=1;startSize=26;horizontalStack=0;resizeParent=1;resizeParentMax=0;resizeLast=0;collapsible=1;marginBottom=0;" parent="WIyWlLk6GJQsqaUBKTNV-1" vertex="1">
          <mxGeometry x="1017" y="-86" width="160" height="134" as="geometry" />
        </mxCell>
        <mxCell id="PtQVFHTTYoA2UzFSWJgZ-11" value="id&#xa;online_status&#xa;price&#xa;part_time_rate" style="text;strokeColor=none;fillColor=none;align=left;verticalAlign=top;spacingLeft=4;spacingRight=4;overflow=hidden;rotatable=0;points=[[0,0.5],[1,0.5]];portConstraint=eastwest;" parent="PtQVFHTTYoA2UzFSWJgZ-10" vertex="1">
          <mxGeometry y="26" width="160" height="74" as="geometry" />
        </mxCell>
        <mxCell id="PtQVFHTTYoA2UzFSWJgZ-12" value="" style="line;strokeWidth=1;fillColor=none;align=left;verticalAlign=middle;spacingTop=-1;spacingLeft=3;spacingRight=3;rotatable=0;labelPosition=right;points=[];portConstraint=eastwest;" parent="PtQVFHTTYoA2UzFSWJgZ-10" vertex="1">
          <mxGeometry y="100" width="160" height="8" as="geometry" />
        </mxCell>
        <mxCell id="PtQVFHTTYoA2UzFSWJgZ-13" value="+ method(type): type" style="text;strokeColor=none;fillColor=none;align=left;verticalAlign=top;spacingLeft=4;spacingRight=4;overflow=hidden;rotatable=0;points=[[0,0.5],[1,0.5]];portConstraint=eastwest;" parent="PtQVFHTTYoA2UzFSWJgZ-10" vertex="1">
          <mxGeometry y="108" width="160" height="26" as="geometry" />
        </mxCell>
        <mxCell id="PtQVFHTTYoA2UzFSWJgZ-15" value="1" style="endArrow=none;html=1;endSize=12;startArrow=diamondThin;startSize=14;startFill=1;align=left;verticalAlign=bottom;rounded=0;endFill=0;exitX=0.5;exitY=0;exitDx=0;exitDy=0;" parent="WIyWlLk6GJQsqaUBKTNV-1" source="PtQVFHTTYoA2UzFSWJgZ-16" target="PtQVFHTTYoA2UzFSWJgZ-13" edge="1">
          <mxGeometry x="-0.6087" y="-2" relative="1" as="geometry">
            <mxPoint x="957" y="160" as="sourcePoint" />
            <mxPoint x="907" y="350" as="targetPoint" />
            <mxPoint as="offset" />
          </mxGeometry>
        </mxCell>
        <mxCell id="PtQVFHTTYoA2UzFSWJgZ-16" value="ServicePackageDetail" style="swimlane;fontStyle=1;align=center;verticalAlign=top;childLayout=stackLayout;horizontal=1;startSize=26;horizontalStack=0;resizeParent=1;resizeParentMax=0;resizeLast=0;collapsible=1;marginBottom=0;" parent="WIyWlLk6GJQsqaUBKTNV-1" vertex="1">
          <mxGeometry x="1017" y="105" width="160" height="134" as="geometry" />
        </mxCell>
        <mxCell id="PtQVFHTTYoA2UzFSWJgZ-17" value="id&#xa;service_package_id&#xa;diagnose_service_json&#xa;description" style="text;strokeColor=none;fillColor=none;align=left;verticalAlign=top;spacingLeft=4;spacingRight=4;overflow=hidden;rotatable=0;points=[[0,0.5],[1,0.5]];portConstraint=eastwest;" parent="PtQVFHTTYoA2UzFSWJgZ-16" vertex="1">
          <mxGeometry y="26" width="160" height="74" as="geometry" />
        </mxCell>
        <mxCell id="PtQVFHTTYoA2UzFSWJgZ-18" value="" style="line;strokeWidth=1;fillColor=none;align=left;verticalAlign=middle;spacingTop=-1;spacingLeft=3;spacingRight=3;rotatable=0;labelPosition=right;points=[];portConstraint=eastwest;" parent="PtQVFHTTYoA2UzFSWJgZ-16" vertex="1">
          <mxGeometry y="100" width="160" height="8" as="geometry" />
        </mxCell>
        <mxCell id="PtQVFHTTYoA2UzFSWJgZ-19" value="+ method(type): type" style="text;strokeColor=none;fillColor=none;align=left;verticalAlign=top;spacingLeft=4;spacingRight=4;overflow=hidden;rotatable=0;points=[[0,0.5],[1,0.5]];portConstraint=eastwest;" parent="PtQVFHTTYoA2UzFSWJgZ-16" vertex="1">
          <mxGeometry y="108" width="160" height="26" as="geometry" />
        </mxCell>
        <mxCell id="PtQVFHTTYoA2UzFSWJgZ-20" value="Doctor" style="swimlane;fontStyle=1;align=center;verticalAlign=top;childLayout=stackLayout;horizontal=1;startSize=26;horizontalStack=0;resizeParent=1;resizeParentMax=0;resizeLast=0;collapsible=1;marginBottom=0;" parent="WIyWlLk6GJQsqaUBKTNV-1" vertex="1">
          <mxGeometry x="757" y="-290" width="160" height="134" as="geometry" />
        </mxCell>
        <mxCell id="PtQVFHTTYoA2UzFSWJgZ-21" value="id&#xa;service_package_id&#xa;diagnose_service_json&#xa;description" style="text;strokeColor=none;fillColor=none;align=left;verticalAlign=top;spacingLeft=4;spacingRight=4;overflow=hidden;rotatable=0;points=[[0,0.5],[1,0.5]];portConstraint=eastwest;" parent="PtQVFHTTYoA2UzFSWJgZ-20" vertex="1">
          <mxGeometry y="26" width="160" height="74" as="geometry" />
        </mxCell>
        <mxCell id="PtQVFHTTYoA2UzFSWJgZ-22" value="" style="line;strokeWidth=1;fillColor=none;align=left;verticalAlign=middle;spacingTop=-1;spacingLeft=3;spacingRight=3;rotatable=0;labelPosition=right;points=[];portConstraint=eastwest;" parent="PtQVFHTTYoA2UzFSWJgZ-20" vertex="1">
          <mxGeometry y="100" width="160" height="8" as="geometry" />
        </mxCell>
        <mxCell id="PtQVFHTTYoA2UzFSWJgZ-23" value="+ method(type): type" style="text;strokeColor=none;fillColor=none;align=left;verticalAlign=top;spacingLeft=4;spacingRight=4;overflow=hidden;rotatable=0;points=[[0,0.5],[1,0.5]];portConstraint=eastwest;" parent="PtQVFHTTYoA2UzFSWJgZ-20" vertex="1">
          <mxGeometry y="108" width="160" height="26" as="geometry" />
        </mxCell>
        <mxCell id="PtQVFHTTYoA2UzFSWJgZ-24" value="0..n" style="endArrow=none;html=1;endSize=10;startArrow=diamondThin;startSize=10;startFill=0;align=left;verticalAlign=bottom;rounded=0;endFill=0;entryX=0.25;entryY=0;entryDx=0;entryDy=0;" parent="WIyWlLk6GJQsqaUBKTNV-1" source="PtQVFHTTYoA2UzFSWJgZ-23" edge="1" target="PtQVFHTTYoA2UzFSWJgZ-10">
          <mxGeometry x="-0.6799" y="-1" relative="1" as="geometry">
            <mxPoint x="1067" y="120" as="sourcePoint" />
            <mxPoint x="1107" y="-60" as="targetPoint" />
            <mxPoint as="offset" />
          </mxGeometry>
        </mxCell>
        <mxCell id="PtQVFHTTYoA2UzFSWJgZ-32" value="Clinic" style="swimlane;fontStyle=1;align=center;verticalAlign=top;childLayout=stackLayout;horizontal=1;startSize=26;horizontalStack=0;resizeParent=1;resizeParentMax=0;resizeLast=0;collapsible=1;marginBottom=0;" parent="WIyWlLk6GJQsqaUBKTNV-1" vertex="1">
          <mxGeometry x="1017" y="-290" width="160" height="134" as="geometry" />
        </mxCell>
        <mxCell id="PtQVFHTTYoA2UzFSWJgZ-33" value="id&#xa;service_package_id&#xa;diagnose_service_json&#xa;description" style="text;strokeColor=none;fillColor=none;align=left;verticalAlign=top;spacingLeft=4;spacingRight=4;overflow=hidden;rotatable=0;points=[[0,0.5],[1,0.5]];portConstraint=eastwest;" parent="PtQVFHTTYoA2UzFSWJgZ-32" vertex="1">
          <mxGeometry y="26" width="160" height="74" as="geometry" />
        </mxCell>
        <mxCell id="PtQVFHTTYoA2UzFSWJgZ-34" value="" style="line;strokeWidth=1;fillColor=none;align=left;verticalAlign=middle;spacingTop=-1;spacingLeft=3;spacingRight=3;rotatable=0;labelPosition=right;points=[];portConstraint=eastwest;" parent="PtQVFHTTYoA2UzFSWJgZ-32" vertex="1">
          <mxGeometry y="100" width="160" height="8" as="geometry" />
        </mxCell>
        <mxCell id="PtQVFHTTYoA2UzFSWJgZ-35" value="+ method(type): type" style="text;strokeColor=none;fillColor=none;align=left;verticalAlign=top;spacingLeft=4;spacingRight=4;overflow=hidden;rotatable=0;points=[[0,0.5],[1,0.5]];portConstraint=eastwest;" parent="PtQVFHTTYoA2UzFSWJgZ-32" vertex="1">
          <mxGeometry y="108" width="160" height="26" as="geometry" />
        </mxCell>
        <mxCell id="PtQVFHTTYoA2UzFSWJgZ-42" value="0...n" style="endArrow=none;html=1;endSize=10;startArrow=diamondThin;startSize=10;startFill=0;align=left;verticalAlign=bottom;rounded=0;endFill=0;entryX=0.5;entryY=0;entryDx=0;entryDy=0;" parent="WIyWlLk6GJQsqaUBKTNV-1" source="PtQVFHTTYoA2UzFSWJgZ-35" target="PtQVFHTTYoA2UzFSWJgZ-10" edge="1">
          <mxGeometry x="-0.2571" relative="1" as="geometry">
            <mxPoint x="1247" y="120" as="sourcePoint" />
            <mxPoint x="1205.6666666666667" y="58" as="targetPoint" />
            <mxPoint as="offset" />
          </mxGeometry>
        </mxCell>
        <mxCell id="PtQVFHTTYoA2UzFSWJgZ-43" value="" style="endArrow=none;shadow=0;strokeWidth=1;rounded=0;endFill=0;edgeStyle=elbowEdgeStyle;elbow=vertical;exitX=1;exitY=0.5;exitDx=0;exitDy=0;entryX=0;entryY=0.5;entryDx=0;entryDy=0;startArrow=diamondThin;startFill=0;endSize=10;startSize=10;" parent="WIyWlLk6GJQsqaUBKTNV-1" source="PtQVFHTTYoA2UzFSWJgZ-21" target="PtQVFHTTYoA2UzFSWJgZ-33" edge="1">
          <mxGeometry x="0.5" y="41" relative="1" as="geometry">
            <mxPoint x="937" y="-30" as="sourcePoint" />
            <mxPoint x="1057" y="-130" as="targetPoint" />
            <mxPoint x="-40" y="32" as="offset" />
          </mxGeometry>
        </mxCell>
        <mxCell id="PtQVFHTTYoA2UzFSWJgZ-44" value="0..n" style="resizable=0;align=left;verticalAlign=bottom;labelBackgroundColor=none;fontSize=12;" parent="PtQVFHTTYoA2UzFSWJgZ-43" connectable="0" vertex="1">
          <mxGeometry x="-1" relative="1" as="geometry">
            <mxPoint x="10" y="4" as="offset" />
          </mxGeometry>
        </mxCell>
        <mxCell id="PtQVFHTTYoA2UzFSWJgZ-45" value="1" style="resizable=0;align=right;verticalAlign=bottom;labelBackgroundColor=none;fontSize=12;" parent="PtQVFHTTYoA2UzFSWJgZ-43" connectable="0" vertex="1">
          <mxGeometry x="1" relative="1" as="geometry">
            <mxPoint x="-7" y="4" as="offset" />
          </mxGeometry>
        </mxCell>
        <mxCell id="PtQVFHTTYoA2UzFSWJgZ-46" value="&amp;nbsp;" style="text;html=1;resizable=0;points=[];;align=center;verticalAlign=middle;labelBackgroundColor=none;rounded=0;shadow=0;strokeWidth=1;fontSize=12;" parent="PtQVFHTTYoA2UzFSWJgZ-43" vertex="1" connectable="0">
          <mxGeometry x="0.5" y="49" relative="1" as="geometry">
            <mxPoint x="-38" y="40" as="offset" />
          </mxGeometry>
        </mxCell>
        <mxCell id="PtQVFHTTYoA2UzFSWJgZ-51" value="Order" style="swimlane;fontStyle=1;align=center;verticalAlign=top;childLayout=stackLayout;horizontal=1;startSize=26;horizontalStack=0;resizeParent=1;resizeParentMax=0;resizeLast=0;collapsible=1;marginBottom=0;" parent="WIyWlLk6GJQsqaUBKTNV-1" vertex="1">
          <mxGeometry x="597" y="-100" width="160" height="134" as="geometry" />
        </mxCell>
        <mxCell id="PtQVFHTTYoA2UzFSWJgZ-52" value="id&#xa;order_status&#xa;pay_status&#xa;diagnose_type&#xa;aftersale_id" style="text;strokeColor=none;fillColor=none;align=left;verticalAlign=top;spacingLeft=4;spacingRight=4;overflow=hidden;rotatable=0;points=[[0,0.5],[1,0.5]];portConstraint=eastwest;" parent="PtQVFHTTYoA2UzFSWJgZ-51" vertex="1">
          <mxGeometry y="26" width="160" height="74" as="geometry" />
        </mxCell>
        <mxCell id="PtQVFHTTYoA2UzFSWJgZ-53" value="" style="line;strokeWidth=1;fillColor=none;align=left;verticalAlign=middle;spacingTop=-1;spacingLeft=3;spacingRight=3;rotatable=0;labelPosition=right;points=[];portConstraint=eastwest;" parent="PtQVFHTTYoA2UzFSWJgZ-51" vertex="1">
          <mxGeometry y="100" width="160" height="8" as="geometry" />
        </mxCell>
        <mxCell id="PtQVFHTTYoA2UzFSWJgZ-54" value="+ method(type): type" style="text;strokeColor=none;fillColor=none;align=left;verticalAlign=top;spacingLeft=4;spacingRight=4;overflow=hidden;rotatable=0;points=[[0,0.5],[1,0.5]];portConstraint=eastwest;" parent="PtQVFHTTYoA2UzFSWJgZ-51" vertex="1">
          <mxGeometry y="108" width="160" height="26" as="geometry" />
        </mxCell>
        <mxCell id="PtQVFHTTYoA2UzFSWJgZ-59" value="ServicePackageOrder" style="swimlane;fontStyle=1;align=center;verticalAlign=top;childLayout=stackLayout;horizontal=1;startSize=26;horizontalStack=0;resizeParent=1;resizeParentMax=0;resizeLast=0;collapsible=1;marginBottom=0;" parent="WIyWlLk6GJQsqaUBKTNV-1" vertex="1">
          <mxGeometry x="747" y="90" width="160" height="124" as="geometry" />
        </mxCell>
        <mxCell id="PtQVFHTTYoA2UzFSWJgZ-60" value="id&#xa;service_status&#xa;effective_time&#xa;expiration_time" style="text;strokeColor=none;fillColor=none;align=left;verticalAlign=top;spacingLeft=4;spacingRight=4;overflow=hidden;rotatable=0;points=[[0,0.5],[1,0.5]];portConstraint=eastwest;" parent="PtQVFHTTYoA2UzFSWJgZ-59" vertex="1">
          <mxGeometry y="26" width="160" height="64" as="geometry" />
        </mxCell>
        <mxCell id="PtQVFHTTYoA2UzFSWJgZ-61" value="" style="line;strokeWidth=1;fillColor=none;align=left;verticalAlign=middle;spacingTop=-1;spacingLeft=3;spacingRight=3;rotatable=0;labelPosition=right;points=[];portConstraint=eastwest;" parent="PtQVFHTTYoA2UzFSWJgZ-59" vertex="1">
          <mxGeometry y="90" width="160" height="8" as="geometry" />
        </mxCell>
        <mxCell id="PtQVFHTTYoA2UzFSWJgZ-62" value="+ method(type): type" style="text;strokeColor=none;fillColor=none;align=left;verticalAlign=top;spacingLeft=4;spacingRight=4;overflow=hidden;rotatable=0;points=[[0,0.5],[1,0.5]];portConstraint=eastwest;" parent="PtQVFHTTYoA2UzFSWJgZ-59" vertex="1">
          <mxGeometry y="98" width="160" height="26" as="geometry" />
        </mxCell>
        <mxCell id="PtQVFHTTYoA2UzFSWJgZ-63" value="0..n" style="endArrow=open;html=1;endSize=10;startArrow=none;startSize=10;startFill=0;align=left;verticalAlign=bottom;rounded=0;endFill=0;" parent="WIyWlLk6GJQsqaUBKTNV-1" source="PtQVFHTTYoA2UzFSWJgZ-23" target="PtQVFHTTYoA2UzFSWJgZ-51" edge="1">
          <mxGeometry x="-0.0252" y="-3" relative="1" as="geometry">
            <mxPoint x="879.2018348623853" y="-146" as="sourcePoint" />
            <mxPoint x="1117" y="-50" as="targetPoint" />
            <mxPoint as="offset" />
          </mxGeometry>
        </mxCell>
        <mxCell id="PtQVFHTTYoA2UzFSWJgZ-64" value="AfterSale" style="swimlane;fontStyle=1;align=center;verticalAlign=top;childLayout=stackLayout;horizontal=1;startSize=26;horizontalStack=0;resizeParent=1;resizeParentMax=0;resizeLast=0;collapsible=1;marginBottom=0;" parent="WIyWlLk6GJQsqaUBKTNV-1" vertex="1">
          <mxGeometry x="477" y="90" width="160" height="134" as="geometry" />
        </mxCell>
        <mxCell id="PtQVFHTTYoA2UzFSWJgZ-65" value="id&#xa;service_package_id&#xa;diagnose_service_json&#xa;description" style="text;strokeColor=none;fillColor=none;align=left;verticalAlign=top;spacingLeft=4;spacingRight=4;overflow=hidden;rotatable=0;points=[[0,0.5],[1,0.5]];portConstraint=eastwest;" parent="PtQVFHTTYoA2UzFSWJgZ-64" vertex="1">
          <mxGeometry y="26" width="160" height="74" as="geometry" />
        </mxCell>
        <mxCell id="PtQVFHTTYoA2UzFSWJgZ-66" value="" style="line;strokeWidth=1;fillColor=none;align=left;verticalAlign=middle;spacingTop=-1;spacingLeft=3;spacingRight=3;rotatable=0;labelPosition=right;points=[];portConstraint=eastwest;" parent="PtQVFHTTYoA2UzFSWJgZ-64" vertex="1">
          <mxGeometry y="100" width="160" height="8" as="geometry" />
        </mxCell>
        <mxCell id="PtQVFHTTYoA2UzFSWJgZ-67" value="+ method(type): type" style="text;strokeColor=none;fillColor=none;align=left;verticalAlign=top;spacingLeft=4;spacingRight=4;overflow=hidden;rotatable=0;points=[[0,0.5],[1,0.5]];portConstraint=eastwest;" parent="PtQVFHTTYoA2UzFSWJgZ-64" vertex="1">
          <mxGeometry y="108" width="160" height="26" as="geometry" />
        </mxCell>
        <mxCell id="PtQVFHTTYoA2UzFSWJgZ-68" value="1" style="endArrow=none;html=1;endSize=10;startArrow=diamondThin;startSize=10;startFill=1;align=left;verticalAlign=bottom;rounded=0;endFill=0;exitX=0.5;exitY=0;exitDx=0;exitDy=0;" parent="WIyWlLk6GJQsqaUBKTNV-1" source="PtQVFHTTYoA2UzFSWJgZ-64" target="PtQVFHTTYoA2UzFSWJgZ-54" edge="1">
          <mxGeometry x="-0.6087" y="-2" relative="1" as="geometry">
            <mxPoint x="1017" y="120" as="sourcePoint" />
            <mxPoint x="1165.8" y="58" as="targetPoint" />
            <mxPoint as="offset" />
          </mxGeometry>
        </mxCell>
        <mxCell id="PtQVFHTTYoA2UzFSWJgZ-73" value="" style="edgeStyle=none;rounded=0;orthogonalLoop=1;jettySize=auto;html=1;startArrow=none;startFill=0;endArrow=blockThin;endFill=0;startSize=10;endSize=10;" parent="WIyWlLk6GJQsqaUBKTNV-1" source="PtQVFHTTYoA2UzFSWJgZ-69" target="PtQVFHTTYoA2UzFSWJgZ-67" edge="1">
          <mxGeometry relative="1" as="geometry" />
        </mxCell>
        <mxCell id="PtQVFHTTYoA2UzFSWJgZ-69" value="ServicePackageAfterSale" style="swimlane;fontStyle=1;align=center;verticalAlign=top;childLayout=stackLayout;horizontal=1;startSize=26;horizontalStack=0;resizeParent=1;resizeParentMax=0;resizeLast=0;collapsible=1;marginBottom=0;" parent="WIyWlLk6GJQsqaUBKTNV-1" vertex="1">
          <mxGeometry x="477" y="270" width="160" height="124" as="geometry" />
        </mxCell>
        <mxCell id="PtQVFHTTYoA2UzFSWJgZ-70" value="id&#xa;service_status&#xa;effective_time&#xa;expiration_time" style="text;strokeColor=none;fillColor=none;align=left;verticalAlign=top;spacingLeft=4;spacingRight=4;overflow=hidden;rotatable=0;points=[[0,0.5],[1,0.5]];portConstraint=eastwest;" parent="PtQVFHTTYoA2UzFSWJgZ-69" vertex="1">
          <mxGeometry y="26" width="160" height="64" as="geometry" />
        </mxCell>
        <mxCell id="PtQVFHTTYoA2UzFSWJgZ-71" value="" style="line;strokeWidth=1;fillColor=none;align=left;verticalAlign=middle;spacingTop=-1;spacingLeft=3;spacingRight=3;rotatable=0;labelPosition=right;points=[];portConstraint=eastwest;" parent="PtQVFHTTYoA2UzFSWJgZ-69" vertex="1">
          <mxGeometry y="90" width="160" height="8" as="geometry" />
        </mxCell>
        <mxCell id="PtQVFHTTYoA2UzFSWJgZ-72" value="+ method(type): type" style="text;strokeColor=none;fillColor=none;align=left;verticalAlign=top;spacingLeft=4;spacingRight=4;overflow=hidden;rotatable=0;points=[[0,0.5],[1,0.5]];portConstraint=eastwest;" parent="PtQVFHTTYoA2UzFSWJgZ-69" vertex="1">
          <mxGeometry y="98" width="160" height="26" as="geometry" />
        </mxCell>
      </root>
    </mxGraphModel>
  </diagram>
</mxfile>
